#!OML:ASF H:\Terrain\Patient Classification 1\Walking\steve\steve.ASF
:FULLY-SPECIFIED
:DEGREES
214
root 8.01936 16.4134 18.9059 6.31842 4.35011 4.64295
lowerback 0.520455 -0.768435 -6.42272
upperback -3.13396 -1.18367 -0.150202
thorax -3.41263 -0.409622 3.48379
lowerneck -9.72449 -2.04737 -2.57022
upperneck 15.4551 -3.33379 5.74106
head 6.43589 -1.30295 1.97591
rclavicle 3.6418e-015 -1.11319e-014
rhumerus -80.4901 -35.3225 -26.846
rradius 15.6053
rwrist 45.0419
rhand 175.342 -69.2488
rfingers 7.12502
rthumb -158.878 -40.3794
lclavicle 3.6418e-015 -1.11319e-014
lhumerus -7.51975 -12.4426 83.74
lradius 50.7478
lwrist 25.9729
lhand -26.6478 -15.7797
lfingers 7.12502
lthumb -0.0799365 14.2001
rfemur -42.595 -2.34424 17.7573
rtibia 24.8937
rfoot -16.4892 3.07882
rtoes -4.9326
lfemur 15.8781 -0.0841222 -28.5128
ltibia 1.27222e-014
lfoot -8.15925 -7.88819
ltoes 3.35861
215
root 8.01459 16.3865 19.1311 6.547 5.03216 4.87123
lowerback 0.454595 -1.05009 -6.63365
upperback -3.15283 -1.55829 -0.0888127
thorax -3.34937 -0.59112 3.67529
lowerneck -12.2176 -2.41563 -1.40101
upperneck 17.5465 -3.79722 3.90652
head 7.51351 -1.54509 1.12774
rclavicle -2.79206e-014 1.70955e-014
rhumerus -79.3777 -34.1219 -29.4288
rradius 15.9969
rwrist 42.0177
rhand 175.265 -69.1421
rfingers 7.12502
rthumb -158.952 -40.2643
lclavicle -2.79206e-014 1.70955e-014
lhumerus -6.85892 -12.4009 83.4837
lradius 52.2486
lwrist 25.8037
lhand -26.8389 -16.4077
lfingers 7.12502
lthumb -0.264496 13.5719
rfemur -43.2668 -3.32289 17.9594
rtibia 24.5219
rfoot -16.5799 4.29031
rtoes -9.98447
lfemur 16.4877 -0.949019 -28.6652
ltibia -1.01778e-013
lfoot -7.7769 -7.82144
ltoes 4.38773
216
root 8.01549 16.3566 19.3707 6.5563 5.42879 5.14459
lowerback 0.407018 -1.19143 -6.80163
upperback -3.00291 -1.74058 -0.0827301
thorax -3.14179 -0.688109 3.77708
lowerneck -9.57362 -1.97465 -2.86144
upperneck 14.8145 -3.15482 5.72742
head 6.20241 -1.24526 2.03324
rclavicle 2.54693e-015 9.74045e-015
rhumerus -80.0014 -34.1686 -28.3626
rradius 15.8576
rwrist 42.2154
rhand 174.999 -69.1143
rfingers 7.12502
rthumb -159.207 -40.2084
lclavicle 2.54693e-015 9.74045e-015
lhumerus -6.30685 -12.0381 83.3553
lradius 53.9867
lwrist 25.2219
lhand -26.6251 -16.6328
lfingers 7.12502
lthumb -0.0580175 13.3469
rfemur -43.6377 -4.0253 18.0325
rtibia 24.479
rfoot -16.1464 5.62806
rtoes -13.2392
lfemur 17.3847 -1.50548 -28.8937
ltibia -3.81667e-014
lfoot -7.35894 -7.77746
ltoes 4.33008
217
root 8.01574 16.3236 19.6182 6.38572 5.6171 5.37147
lowerback 0.662315 -1.22285 -6.97958
upperback -2.91909 -1.80293 -0.0456635
thorax -3.18656 -0.714406 3.9224
lowerneck -10.2265 -1.96595 -2.23932
upperneck 15.2572 -3.07633 4.6374
head 6.42692 -1.24274 1.58574
rclavicle -8.62694e-015 -1.43125e-014
rhumerus -80.3826 -33.7899 -28.037
rradius 16.0421
rwrist 41.8209
rhand 174.93 -68.9242
rfingers 7.12502
rthumb -159.273 -40.0111
lclavicle -8.62694e-015 -1.43125e-014
lhumerus -5.75376 -12.0501 83.1839
lradius 55.2993
lwrist 24.8361
lhand -26.3256 -16.9657
lfingers 7.12502
lthumb 0.231317 13.0139
rfemur -43.6381 -3.82897 17.7056
rtibia 24.7126
rfoot -15.8119 6.17509
rtoes -15.5504
lfemur 18.5261 -1.83381 -29.0601
ltibia 0
lfoot -6.90254 -7.83093
ltoes 6.14739
218
root 8.01631 16.2917 19.8597 6.26832 5.62304 5.41388
lowerback 0.99349 -1.23319 -6.9815
upperback -2.9808 -1.84352 0.0627668
thorax -3.43037 -0.722629 4.04757
lowerneck -10.2568 -1.8994 -2.23274
upperneck 15.1814 -2.94588 4.41541
head 6.39973 -1.19763 1.52464
rclavicle -7.04598e-015 -1.35174e-014
rhumerus -79.8486 -32.7966 -29.4379
rradius 16.3698
rwrist 39.9546
rhand 174.848 -68.9855
rfingers 7.12502
rthumb -159.353 -40.0637
lclavicle -7.04598e-015 -1.35174e-014
lhumerus -5.40616 -12.1376 82.9556
lradius 56.3247
lwrist 24.9953
lhand -26.3307 -17.8798
lfingers 7.12502
lthumb 0.226358 12.0998
rfemur -43.5823 -3.09378 17.4074
rtibia 25.2215
rfoot -15.8895 6.17673
rtoes -16.7314
lfemur 19.5566 -1.98478 -29.0166
ltibia -9.54166e-015
lfoot -6.17681 -7.74654
ltoes 7.06487
219
root 8.02083 16.2488 20.1016 6.09217 5.6495 5.46091
lowerback 1.60911 -1.21806 -6.82857
upperback -3.24211 -1.87653 0.13096
thorax -4.05077 -0.713287 4.05594
lowerneck -9.90828 -1.84216 -2.49644
upperneck 15.1123 -2.8323 4.45497
head 6.31705 -1.15988 1.59286
rclavicle -1.13105e-014 -4.77083e-015
rhumerus -79.4813 -31.6419 -30.6368
rradius 16.5607
rwrist 37.943
rhand 174.359 -68.7021
rfingers 7.12502
rthumb -159.823 -39.73
lclavicle -1.13105e-014 -4.77083e-015
lhumerus -5.86486 -12.1001 82.962
lradius 57.7187
lwrist 25.0573
lhand -26.4068 -18.7975
lfingers 7.12502
lthumb 0.152872 11.1822
rfemur -43.3671 -2.8408 17.4086
rtibia 25.9615
rfoot -16.1994 6.85869
rtoes -17.6244
lfemur 20.665 -2.14282 -29.0052
ltibia -3.18055e-014
lfoot -5.14982 -7.57585
ltoes 5.80314
220
root 8.02223 16.1901 20.3529 5.89914 5.44829 5.57653
lowerback 1.98188 -1.1102 -6.77955
upperback -3.40213 -1.76522 0.165636
thorax -4.44447 -0.640509 4.07267
lowerneck -9.19871 -1.7657 -2.93639
upperneck 14.6009 -2.69274 4.71797
head 6.03603 -1.11054 1.7639
rclavicle -2.45561e-014 -1.59028e-014
rhumerus -79.6512 -30.9719 -30.6582
rradius 16.5254
rwrist 37.5422
rhand 174.101 -68.352
rfingers 7.12502
rthumb -160.071 -39.3538
lclavicle -2.45561e-014 -1.59028e-014
lhumerus -6.37453 -12.2288 82.9774
lradius 59.1703
lwrist 25.018
lhand -26.609 -19.2008
lfingers 7.12502
lthumb -0.0424341 10.779
rfemur -42.9979 -2.25655 17.2913
rtibia 26.7997
rfoot -15.9494 7.4433
rtoes -18.588
lfemur 21.8455 -2.08071 -29.0914
ltibia -1.59028e-014
lfoot -4.0854 -7.60856
ltoes 5.11397
221
root 8.02229 16.1367 20.609 5.82729 5.05765 5.38973
lowerback 1.78551 -1.00683 -6.4872
upperback -3.31306 -1.5928 0.266917
thorax -4.26208 -0.571608 3.99926
lowerneck -12.7911 -2.38878 -1.31088
upperneck 17.6669 -3.41538 2.05298
head 7.60692 -1.52341 0.538991
rclavicle -1.05946e-014 -7.95139e-016
rhumerus -79.3628 -30.6566 -31.237
rradius 16.5342
rwrist 37.0748
rhand 173.842 -68.1715
rfingers 7.12502
rthumb -160.319 -39.1477
lclavicle -1.05946e-014 -7.95139e-016
lhumerus -6.44882 -12.3233 82.7975
lradius 60.2962
lwrist 25.4469
lhand -27.0389 -19.614
lfingers 7.12502
lthumb -0.457616 10.3652
rfemur -42.7057 -1.35469 17.4669
rtibia 27.7554
rfoot -14.5301 7.69738
rtoes -17.3032
lfemur 22.9285 -1.83399 -28.8633
ltibia -5.725e-014
lfoot -3.06066 -7.6055
ltoes 1.62322
